<?xml version="1.0" encoding="UTF-8" standalone="no"?>
<svg
   xmlns:dc="http://purl.org/dc/elements/1.1/"
   xmlns:cc="http://creativecommons.org/ns#"
   xmlns:rdf="http://www.w3.org/1999/02/22-rdf-syntax-ns#"
   xmlns:svg="http://www.w3.org/2000/svg"
   xmlns="http://www.w3.org/2000/svg"
   xmlns:sodipodi="http://sodipodi.sourceforge.net/DTD/sodipodi-0.dtd"
   xmlns:inkscape="http://www.inkscape.org/namespaces/inkscape"
   version="1.1"
   width="45"
   height="45"
   id="svg3645"
   inkscape:version="0.91 r"
   sodipodi:docname="wKingCheck.svg">
  <metadata
     id="metadata3667">
    <rdf:RDF>
      <cc:Work
         rdf:about="">
        <dc:format>image/svg+xml</dc:format>
        <dc:type
           rdf:resource="http://purl.org/dc/dcmitype/StillImage" />
        <dc:title></dc:title>
      </cc:Work>
    </rdf:RDF>
  </metadata>
  <defs
     id="defs3665" />
  <sodipodi:namedview
     pagecolor="#ffffff"
     bordercolor="#666666"
     borderopacity="1"
     objecttolerance="10"
     gridtolerance="10"
     guidetolerance="10"
     inkscape:pageopacity="0"
     inkscape:pageshadow="2"
     inkscape:window-width="1920"
     inkscape:window-height="1025"
     id="namedview3663"
     showgrid="false"
     inkscape:zoom="14.833529"
     inkscape:cx="21.650981"
     inkscape:cy="21.476087"
     inkscape:window-x="0"
     inkscape:window-y="30"
     inkscape:window-maximized="1"
     inkscape:current-layer="svg3645" />
  <ellipse
     style="fill:#ff0000"
     id="path3687"
     cx="22.246899"
     cy="23.191298"
     rx="21.707579"
     ry="20.662649" />
  <g
     style="fill:none; fill-opacity:1; fill-rule:evenodd; stroke:#000000; stroke-width:1.5; stroke-linecap:round;stroke-linejoin:round;stroke-miterlimit:4; stroke-dasharray:none; stroke-opacity:1;"
     id="g3647">
    <path
       d="M 22.5,11.63 L 22.5,6"
       style="fill:none; stroke:#000000; stroke-linejoin:miter;"
       id="path3649" />
    <path
       d="M 20,8 L 25,8"
       style="fill:none; stroke:#000000; stroke-linejoin:miter;"
       id="path3651" />
    <path
       d="M 22.5,25 C 22.5,25 27,17.5 25.5,14.5 C 25.5,14.5 24.5,12 22.5,12 C 20.5,12 19.5,14.5 19.5,14.5 C 18,17.5 22.5,25 22.5,25"
       style="fill:#ffffff; stroke:#000000; stroke-linecap:butt; stroke-linejoin:miter;"
       id="path3653" />
    <path
       d="M 11.5,37 C 17,40.5 27,40.5 32.5,37 L 32.5,30 C 32.5,30 41.5,25.5 38.5,19.5 C 34.5,13 25,16 22.5,23.5 L 22.5,27 L 22.5,23.5 C 19,16 9.5,13 6.5,19.5 C 3.5,25.5 11.5,29.5 11.5,29.5 L 11.5,37 z "
       style="fill:#ffffff; stroke:#000000;"
       id="path3655" />
    <path
       d="M 11.5,30 C 17,27 27,27 32.5,30"
       style="fill:none; stroke:#000000;"
       id="path3657" />
    <path
       d="M 11.5,33.5 C 17,30.5 27,30.5 32.5,33.5"
       style="fill:none; stroke:#000000;"
       id="path3659" />
    <path
       d="M 11.5,37 C 17,34 27,34 32.5,37"
       style="fill:none; stroke:#000000;"
       id="path3661" />
  </g>
  <path
     style="fill:#ffffff"
     d="M 11.585945,28.648758 C 10.439799,28.003913 9.0742446,26.928794 8.3574538,26.106925 7.1717894,24.747448 6.6309546,23.522281 6.6309546,22.195841 c 0,-0.851631 0.1789938,-1.511011 0.6862601,-2.528057 0.3776315,-0.757133 0.4821926,-0.904761 1.0299268,-1.454128 0.4719419,-0.473349 0.7346769,-0.675567 1.1633222,-0.895371 1.7684603,-0.906845 3.9573443,-0.781968 6.3226163,0.36071 1.316539,0.636028 2.377421,1.427675 3.541291,2.642566 0.797854,0.832829 1.403113,1.650998 1.969873,2.662809 l 0.387635,0.692029 0,1.626345 0,1.626346 -0.45505,0.04298 c -0.250278,0.02364 -0.630349,0.04319 -0.844603,0.04346 -0.546753,6.74e-4 -2.223818,0.179536 -3.176214,0.338753 -1.707013,0.285368 -3.495461,0.776505 -4.746764,1.303538 l -0.518814,0.218518 -0.404489,-0.227574 z"
     id="path3669"
     inkscape:connector-curvature="0" />
  <path
     style="fill:#ffffff"
     d="m 32.181179,28.970485 c -0.682249,-0.375098 -2.369081,-0.952026 -3.741523,-1.279668 -1.418627,-0.33867 -3.77904,-0.669628 -4.803308,-0.673483 l -0.353928,-0.0013 0,-1.709806 0,-1.709806 0.204251,-0.495314 c 1.232104,-2.987884 3.817159,-5.339124 6.705771,-6.099244 2.578609,-0.678544 4.878778,-0.126225 6.578774,1.579703 1.008565,1.012085 1.458252,1.941664 1.527495,3.15759 0.04162,0.730826 -0.04708,1.261766 -0.32969,1.97355 -0.548885,1.38242 -1.793459,2.83079 -3.580603,4.166921 -0.550029,0.411219 -1.83088,1.228105 -1.918318,1.22344 -0.02913,-0.0015 -0.159147,-0.0612 -0.288921,-0.132551 z"
     id="path3671"
     inkscape:connector-curvature="0" />
  <path
     style="fill:#ffffff"
     d="M 22.091897,21.193042 C 21.937664,20.95821 21.564275,20.458755 21.262143,20.083143 20.797159,19.505071 20.682532,19.31063 20.515608,18.816803 20.16536,17.780634 20.014669,16.953285 20.013689,16.06109 c -8.51e-4,-0.774477 0.0085,-0.828797 0.219194,-1.273699 0.771159,-1.628368 1.89607,-2.327669 2.952794,-1.835606 0.609314,0.283727 1.301423,1.118292 1.639572,1.977043 0.280149,0.711454 0.251232,1.667924 -0.09124,3.017993 -0.152976,0.603049 -0.183791,0.660053 -0.645434,1.193977 -0.512952,0.593266 -1.128562,1.485999 -1.453385,2.107639 -0.1075,0.205731 -0.210622,0.373498 -0.229162,0.372815 -0.01854,-6.81e-4 -0.159897,-0.193378 -0.31413,-0.42821 z"
     id="path3673"
     inkscape:connector-curvature="0" />
  <path
     style="fill:#ffffff"
     d="m 12.293801,31.347796 0,-0.874874 0.522465,-0.238128 c 2.054416,-0.936359 5.002423,-1.553013 7.927651,-1.658278 4.045138,-0.145565 7.789847,0.449076 10.442894,1.658278 l 0.522465,0.238128 0,0.874874 c 0,0.802299 -0.0098,0.871819 -0.117976,0.838049 -0.06489,-0.02025 -0.45168,-0.162525 -0.85954,-0.31616 -1.483576,-0.55884 -3.611399,-1.022637 -5.763969,-1.256359 -1.27102,-0.138006 -4.427135,-0.156572 -5.629139,-0.03311 -2.249646,0.23106 -4.590652,0.727592 -6.067336,1.286894 -0.407859,0.154479 -0.794652,0.297677 -0.859539,0.318218 -0.108216,0.03426 -0.117976,-0.03503 -0.117976,-0.837528 z"
     id="path3675"
     inkscape:connector-curvature="0" />
  <path
     style="fill:#ffffff"
     d="m 12.308698,34.827018 0.01881,-0.885498 0.60464,-0.261794 c 2.458702,-1.064557 5.564957,-1.623096 9.035682,-1.624715 3.693657,-0.0017 6.786441,0.578211 9.421224,1.766598 l 0.320221,0.144431 0,0.873238 c 0,0.480281 -0.01438,0.873239 -0.03195,0.873239 -0.01757,0 -0.263978,-0.09217 -0.547564,-0.204823 -1.337619,-0.531359 -3.606506,-1.079893 -5.420404,-1.310455 -4.340262,-0.551684 -9.229398,-0.06091 -12.740236,1.278879 -0.340708,0.130019 -0.632915,0.236399 -0.64935,0.236399 -0.01644,0 -0.02142,-0.398475 -0.01107,-0.885499 z"
     id="path3677"
     inkscape:connector-curvature="0" />
  <path
     style="fill:#ffffff"
     d="m 12.308698,34.827063 0.01881,-0.885453 0.574355,-0.252342 c 2.427236,-1.066403 5.560194,-1.630897 9.065967,-1.633498 2.276,-0.0017 3.987003,0.171169 5.888318,0.59488 0.903483,0.201343 2.730678,0.793232 3.398076,1.100749 l 0.455051,0.209674 0,0.882935 c 0,0.813203 -0.0093,0.879356 -0.117976,0.837635 -2.129705,-0.817734 -4.100572,-1.286421 -6.581181,-1.565054 -1.192839,-0.133986 -4.511348,-0.152659 -5.671467,-0.03191 -2.295953,0.238963 -4.542115,0.719452 -6.163255,1.318416 -0.460616,0.170184 -0.848289,0.309426 -0.861496,0.309426 -0.01321,0 -0.01555,-0.398454 -0.0052,-0.885454 z"
     id="path3679"
     inkscape:connector-curvature="0" />
  <path
     style="fill:#ffffff"
     d="m 19.462195,38.709053 c -1.18827,-0.129716 -2.012678,-0.278542 -3.157211,-0.569952 -1.252843,-0.318988 -2.99996,-0.947381 -2.99996,-1.079009 0,-0.02759 0.265446,-0.144318 0.58988,-0.259401 4.808273,-1.705583 11.624409,-1.676729 16.415514,0.06949 0.213199,0.07771 0.387635,0.163509 0.387635,0.190675 0,0.121036 -1.698825,0.742153 -2.861416,1.046178 -1.953314,0.510805 -3.629614,0.708006 -5.936221,0.69834 -0.889876,-0.0037 -1.987075,-0.04707 -2.438221,-0.09632 z"
     id="path3681"
     inkscape:connector-curvature="0" />
  <path
     style="fill:#ffffff"
     d="m 20.080215,38.77465 c -0.111234,-0.01474 -0.520779,-0.06035 -0.9101,-0.101358 -1.794117,-0.188997 -3.892729,-0.727069 -5.511163,-1.41303 -0.194661,-0.08251 -0.353928,-0.173002 -0.353928,-0.201103 0,-0.07555 1.268048,-0.509326 2.157275,-0.737961 4.106025,-1.055728 9.088635,-1.043177 13.213309,0.03328 0.834027,0.217665 2.022445,0.637026 2.022445,0.713666 0,0.03304 -0.0089,0.06008 -0.01967,0.06008 -0.01082,0 -0.321771,0.123469 -0.691002,0.274376 -1.322484,0.540504 -2.898812,0.950923 -4.682513,1.219157 -0.725529,0.109105 -1.327097,0.141202 -2.966253,0.15827 -1.130884,0.01178 -2.147163,0.0094 -2.258398,-0.0054 z"
     id="path3683"
     inkscape:connector-curvature="0" />
  <path
     style="fill:#ffffff"
     d="m 20.080215,38.779385 c -0.07416,-0.01312 -0.468533,-0.05913 -0.876393,-0.102257 -1.805899,-0.190934 -3.821201,-0.694527 -5.376333,-1.343464 -0.287356,-0.11991 -0.522465,-0.242654 -0.522465,-0.272766 0,-0.08295 1.065592,-0.451163 2.053107,-0.709456 2.126097,-0.5561 4.108076,-0.79696 6.575993,-0.799148 2.538211,-0.0023 4.427041,0.217988 6.572947,0.766406 1.080686,0.276186 2.190982,0.6523 2.190982,0.742198 0,0.06181 -0.806836,0.40887 -1.516834,0.652455 -1.164376,0.399473 -2.599781,0.732833 -4.041291,0.938553 -0.681814,0.0973 -4.663261,0.197615 -5.059713,0.127479 z"
     id="path3685"
     inkscape:connector-curvature="0" />
</svg>
