<?xml version="1.0" encoding="UTF-8" standalone="no"?>
<svg
   xmlns:dc="http://purl.org/dc/elements/1.1/"
   xmlns:cc="http://creativecommons.org/ns#"
   xmlns:rdf="http://www.w3.org/1999/02/22-rdf-syntax-ns#"
   xmlns:svg="http://www.w3.org/2000/svg"
   xmlns="http://www.w3.org/2000/svg"
   xmlns:sodipodi="http://sodipodi.sourceforge.net/DTD/sodipodi-0.dtd"
   xmlns:inkscape="http://www.inkscape.org/namespaces/inkscape"
   version="1.1"
   width="45"
   height="45"
   id="svg3588"
   inkscape:version="0.91 r"
   sodipodi:docname="wQueen.svg">
  <metadata
     id="metadata3614">
    <rdf:RDF>
      <cc:Work
         rdf:about="">
        <dc:format>image/svg+xml</dc:format>
        <dc:type
           rdf:resource="http://purl.org/dc/dcmitype/StillImage" />
      </cc:Work>
    </rdf:RDF>
  </metadata>
  <defs
     id="defs3612" />
  <sodipodi:namedview
     pagecolor="#ffffff"
     bordercolor="#666666"
     borderopacity="1"
     objecttolerance="10"
     gridtolerance="10"
     guidetolerance="10"
     inkscape:pageopacity="0"
     inkscape:pageshadow="2"
     inkscape:window-width="640"
     inkscape:window-height="480"
     id="namedview3610"
     showgrid="false"
     inkscape:zoom="5.2444444"
     inkscape:cx="22.5"
     inkscape:cy="22.5"
     inkscape:window-x="0"
     inkscape:window-y="30"
     inkscape:window-maximized="0"
     inkscape:current-layer="svg3588" />
  <circle
     style="fill:#c8b7b7"
     id="path3640"
     cx="22.5"
     cy="22.5"
     r="22.526192" />
  <g
     style="opacity:1; fill:#ffffff; fill-opacity:1; fill-rule:evenodd; stroke:#000000; stroke-width:1.5; stroke-linecap:round;stroke-linejoin:round;stroke-miterlimit:4; stroke-dasharray:none; stroke-opacity:1;"
     id="g3590">
    <path
       d="M 9 13 A 2 2 0 1 1  5,13 A 2 2 0 1 1  9 13 z"
       transform="translate(-1,-1)"
       id="path3592" />
    <path
       d="M 9 13 A 2 2 0 1 1  5,13 A 2 2 0 1 1  9 13 z"
       transform="translate(15.5,-5.5)"
       id="path3594" />
    <path
       d="M 9 13 A 2 2 0 1 1  5,13 A 2 2 0 1 1  9 13 z"
       transform="translate(32,-1)"
       id="path3596" />
    <path
       d="M 9 13 A 2 2 0 1 1  5,13 A 2 2 0 1 1  9 13 z"
       transform="translate(7,-4.5)"
       id="path3598" />
    <path
       d="M 9 13 A 2 2 0 1 1  5,13 A 2 2 0 1 1  9 13 z"
       transform="translate(24,-4)"
       id="path3600" />
    <path
       d="M 9,26 C 17.5,24.5 30,24.5 36,26 L 38,14 L 31,25 L 31,11 L 25.5,24.5 L 22.5,9.5 L 19.5,24.5 L 14,10.5 L 14,25 L 7,14 L 9,26 z "
       style="stroke-linecap:butt;"
       id="path3602" />
    <path
       d="M 9,26 C 9,28 10.5,28 11.5,30 C 12.5,31.5 12.5,31 12,33.5 C 10.5,34.5 10.5,36 10.5,36 C 9,37.5 11,38.5 11,38.5 C 17.5,39.5 27.5,39.5 34,38.5 C 34,38.5 35.5,37.5 34,36 C 34,36 34.5,34.5 33,33.5 C 32.5,31 32.5,31.5 33.5,30 C 34.5,28 36,28 36,26 C 27.5,24.5 17.5,24.5 9,26 z "
       style="stroke-linecap:butt;"
       id="path3604" />
    <path
       d="M 11.5,30 C 15,29 30,29 33.5,30"
       style="fill:none;"
       id="path3606" />
    <path
       d="M 12,33.5 C 18,32.5 27,32.5 33,33.5"
       style="fill:none;"
       id="path3608" />
  </g>
</svg>
